Coordinates
version=1
nRows=8
nColumns=36
inDegrees=yes

Units are S.I. units (second, meters, Newtons, ...)
If the header above contains a line with 'inDegrees', this indicates whether rotational values are in degrees (yes) or radians (no).

endheader
time	pelvis_tilt	pelvis_list	pelvis_rotation	pelvis_tx	pelvis_ty	pelvis_tz	hip_flexion_r	hip_adduction_r	hip_rotation_r	knee_angle_r	knee_angle_r_beta	ankle_angle_r	subtalar_angle_r	mtp_angle_r	hip_flexion_l	hip_adduction_l	hip_rotation_l	knee_angle_l	knee_angle_l_beta	ankle_angle_l	subtalar_angle_l	mtp_angle_l	lumbar_extension	lumbar_bending	lumbar_rotation	arm_flex_r	arm_add_r	arm_rot_r	elbow_flex_r	pro_sup_r	arm_flex_l	arm_add_l	arm_rot_l	elbow_flex_l	pro_sup_l
      4.33333330	     -5.69521940	     -0.57286790	      4.75544794	      0.38187805	      0.93061788	     -0.04235851	      1.65824993	     -5.06249848	    -13.36522898	      1.76644601	      0.03083030	     -0.99270355	    -10.46191403	     -7.49999987	      3.44032707	     -4.01252595	     -3.44407279	      1.02283245	      0.01785179	      0.74925539	     -3.06140851	     -7.49999987	      5.52505670	     -0.27215265	      1.70465981	    175.85893834	     -8.52853687	     55.21150098	     25.82713707	     79.37565745	    111.56328224	      5.17295789	     -6.65578394	     18.88450270	     90.33981859
      4.35000000	     -5.72530406	     -0.55282128	      4.77645798	      0.38186493	      0.93095068	     -0.04228462	      1.69230646	     -5.09490183	    -13.40985426	      1.75241465	      0.03058541	     -0.98645342	    -10.53010971	     -7.49999987	      3.47728361	     -3.99245344	     -3.39841515	      1.02711568	      0.01792655	      0.77750945	     -3.05516182	     -7.49999987	      5.56176280	     -0.33269118	      1.70378363	    175.98822438	     -8.50667023	     55.09509409	     25.46321942	     79.57376298	    111.72090775	      5.41913561	     -8.20262763	     19.05788502	     93.62124010
      4.36666670	     -5.74702377	     -0.53100649	      4.74878361	      0.38192665	      0.93062101	     -0.04227679	      1.72566359	     -5.13626160	    -13.39827622	      1.73412942	      0.03026627	     -0.98415701	    -10.63062065	     -7.49999987	      3.49030717	     -3.96305990	     -3.33241013	      1.01899699	      0.01778485	      0.74615943	     -3.22275768	     -7.49999987	      5.54977204	     -0.32752655	      1.69559274	    176.12850928	     -8.40283896	     55.28942476	     25.20633077	     78.88637917	    111.77677394	      5.21720801	     -6.93418435	     18.96482970	     90.26380374
      4.38333330	     -5.77685262	     -0.51207056	      4.75499012	      0.38192220	      0.93096188	     -0.04223080	      1.74169404	     -5.15186250	    -13.23136429	      1.69290802	      0.02954682	     -1.08728732	    -10.96011044	     -7.49999987	      3.52070364	     -3.93371937	     -3.19169394	      1.01529861	      0.01772030	      0.73763333	     -3.41952066	     -7.49999987	      5.53506773	     -0.32874527	      1.77567177	    176.44317390	     -8.37871898	     56.68183401	     24.92996442	     76.63971245	    111.84426516	      5.00923071	     -4.43531909	     18.75472753	     84.44496502
      4.40000000	     -5.77771544	     -0.49737677	      4.77095621	      0.38191385	      0.93061066	     -0.04219157	      1.73301500	     -5.16561228	    -13.39149370	      1.69398785	      0.02956567	     -0.84841560	    -10.49776073	     -7.49999987	      3.53229786	     -3.92977887	     -3.37410672	      1.04293765	      0.01820270	      0.83236544	     -3.04720011	     -7.49999987	      5.63876332	     -0.33342797	      1.54796344	    175.85059513	     -8.30771270	     54.30055284	     25.20754562	     79.53638894	    111.80529040	      5.21741780	     -7.34528612	     18.84622271	     92.75219531
      4.41666670	     -5.73367194	     -0.48476489	      4.74643936	      0.38177876	      0.93091607	     -0.04208933	      1.68503775	     -5.18448715	    -13.35366355	      1.69594294	      0.02959979	     -0.82716787	    -10.68105508	     -7.49999987	      3.48218474	     -3.91937320	     -3.30324390	      1.03147006	      0.01800255	      0.68129778	     -3.18077143	     -7.49999987	      5.51515339	     -0.30723171	      1.51894792	    176.29349964	     -7.97206237	     55.75077926	     24.34483009	     77.98550315	    112.02419965	      4.99482370	     -5.24150562	     18.36848372	     88.56720137
      4.43333330	     -5.71230762	     -0.50071259	      4.76505169	      0.38170081	      0.93058817	     -0.04209621	      1.65411752	     -5.17780345	    -13.50807252	      1.69085810	      0.02951104	     -0.70747333	    -10.62709850	     -7.49999987	      3.46721432	     -3.93008894	     -3.03301342	      1.02412498	      0.01787435	      0.41181480	     -3.67520244	     -7.49999987	      5.51070989	     -0.26640013	      1.36512570	    176.47707407	     -7.66330992	     56.89577303	     23.52890445	     76.70893941	    112.29620553	      4.82181997	     -3.44861110	     17.61848372	     84.53842401
      4.45000000	     -5.66096543	     -0.48289798	      4.69915166	      0.38164716	      0.93100505	     -0.04199686	      1.62820721	     -5.18879686	    -13.45864322	      1.70022319	      0.02967449	     -0.59557999	    -10.62896728	     -7.49999987	      3.41514538	     -3.92610804	     -3.28999862	      1.04736513	      0.01827997	      0.53228913	     -3.19088213	     -7.49999987	      5.48393045	     -0.26029905	      1.41710383	    176.33182190	     -7.55941522	     54.73211034	     23.43235439	     78.89073922	    112.17755814	      4.88421676	     -6.64428568	     18.16888130	     93.24814864
